<?xml version="1.0" encoding="utf-8"?>
<!-- Generator: Adobe Illustrator 27.7.0, SVG Export Plug-In . SVG Version: 6.00 Build 0)  -->
<svg version="1.1" id="Capa_1" xmlns="http://www.w3.org/2000/svg" xmlns:xlink="http://www.w3.org/1999/xlink" x="0px" y="0px"
	 viewBox="0 0 250 250" style="enable-background:new 0 0 250 250;" xml:space="preserve">
<style type="text/css">
	.st0{fill:#FFEA9A;}
	.st1{fill:#5E4F45;}
	.st2{fill:#FAB6DB;}
</style>
<g>
	<g>
		<g>
			<path class="st0" d="M102.97,118.92C89.01,99.76,55.4,64.88,60.05,39.34c3.62-20.63,36.2-22.6,47.57-6.39
				c8.43-26.04,48.09-20.63,51.19,1.47c3.62,23.09-2.72,48.14-14.99,78.6"/>
			<g>
				<path class="st1" d="M104.24,118.17c-14.58-19.72-32.83-37.98-41.01-61.6c-4.54-13.12-1.87-26.75,12.24-31.64
					c10.92-3.78,24.1,0,31.11,9.06c0.74,0.96,2.13,0.26,2.46-0.65c7.25-19.71,39.34-22.95,47.54-1.96
					c4.44,11.37,1.51,27.72-0.73,39.19c-2.82,14.45-8.03,28.42-13.46,42.06c-0.7,1.77,2.15,2.53,2.84,0.78
					c6.98-17.53,13.04-35.37,15.39-54.16c1.47-11.78,2.35-27-6-36.52c-14.05-16.01-41.51-8.99-48.43,9.83
					c0.82-0.22,1.64-0.43,2.46-0.65c-13.22-17.1-46.94-14.92-50.33,9.13C56.46,54.3,64.28,68,70.98,78.77
					c9.02,14.51,20.58,27.19,30.72,40.89C102.81,121.17,105.37,119.7,104.24,118.17L104.24,118.17z"/>
			</g>
		</g>
		<g>
			<path class="st0" d="M109.35,112.3c-22.9-20.53-60.11-51.44-87.62-37.76c-21.61,10.81-5.89,34.59,6.55,43.95
				c-13.75,5.04-23.58,30.98-13.1,43.95c11.14,12.97,37.33,5.04,49.12-1.44c13.1-6.48,35.05-13.94,47.5-21.15"/>
			<g>
				<path class="st1" d="M110.4,111.25C90.57,93.54,60.02,64.37,30.58,70.17C19.87,72.29,10.2,78.26,9.54,89.98
					c-0.29,5.2,2.21,10.4,4.65,14.82c1.32,2.38,9.43,14.13,11.58,13.19c-20.52,8.97-23.27,46.13,0.29,52.15
					c12.16,3.11,26.53-1.75,37.38-7.02c16.12-7.83,33.43-13.26,49.11-22c1.66-0.93,0.17-3.47-1.49-2.54
					c-11.89,6.63-24.78,11.27-37.3,16.54c-9.55,4.02-18.4,8.91-28.54,11.39c-14.17,3.46-31.2,1.05-32.91-16.27
					c-1.15-11.64,5.88-25.74,16.72-30.48c0.82-0.36,1-1.76,0.3-2.31c-7.72-6.11-14.11-14.13-16.48-23.83
					C8.37,75.24,32.64,71.26,45.3,73.55c24.17,4.37,45.36,24.01,63.01,39.79C109.72,114.6,111.82,112.52,110.4,111.25L110.4,111.25z
					"/>
			</g>
		</g>
		<g>
			<path class="st0" d="M138.59,109.52c12.51-28.02,34.37-58.46,63.67-55c20.93,2.77,17.96,27.05,9.58,40.89
				c12.56,2.77,25.12,5.53,29.3,18.68c4.19,12.45,0,24.21-11.86,29.75c-23.72,11.76-69.08-0.69-89.32-12.45"/>
			<g>
				<path class="st1" d="M139.86,110.27c9.46-20.76,22.87-43.59,45.17-52.29c10.64-4.15,26.03-3.74,30.64,8.55
					c3.37,9-0.61,20.31-5.1,28.15c-0.45,0.79-0.06,1.96,0.88,2.17c14.77,3.28,28.02,7.85,29.77,25.11
					c1.76,17.37-16.64,23.71-30.44,24.95c-23.25,2.08-49.88-5.42-70.06-16.78c-1.66-0.93-3.15,1.61-1.49,2.54
					c23.87,13.43,57.04,22.23,84.1,15.05c11.57-3.07,19.67-11.22,20.85-23.24c1.41-14.33-8.99-23.79-21.37-27.86
					c-0.77-0.25-8.42-2.66-8.71-2.16c1.43-2.5,2.45-5.24,3.4-7.94c1.87-5.32,2.47-11.07,1.91-16.66
					c-0.92-9.09-8.01-16.03-17.14-16.8c-32.6-2.74-53.18,29.89-64.95,55.73C136.53,110.49,139.07,111.99,139.86,110.27
					L139.86,110.27z"/>
			</g>
		</g>
		<g>
			<path class="st0" d="M96.09,132.74c-29.47,14.18-52.73,33.17-57.97,57.41c-4.58,23.58,18.98,31.67,36.01,21.19
				c1.31,11.79,7.38,21.38,20.48,25.97c10.48,3.93,19.47,2.19,27.99-5.01c18.34-15.06,14.09-65.27,10.82-86.23"/>
			<g>
				<path class="st1" d="M95.35,131.46c-25.2,12.35-57.18,32.58-59.27,63.85c-0.68,10.09,6.02,17.96,15.17,21.01
					c4.85,1.62,10.22,1.07,15.08-0.03c2.3-0.52,4.44-1.55,6.56-2.55c-0.45,0.21,2.04,7.23,2.32,7.85
					c10.85,23.76,45.79,25.7,56.36,0.64c9.84-23.32,6.99-52.15,3.28-76.55c-0.28-1.87-3.12-1.07-2.84,0.78
					c3.11,20.5,4.51,42.11,0.57,62.57c-2.44,12.64-8.22,23.13-20.87,27.86c-17.6,6.57-33.88-10-36.14-25.94
					c-0.14-0.97-1.42-1.3-2.17-0.88c-9.14,5.17-20.53,6.36-29-0.8c-9.62-8.14-4.52-23.05,0.21-32.29
					c10.41-20.31,32.48-33.29,52.23-42.96C98.54,133.17,97.05,130.63,95.35,131.46L95.35,131.46z"/>
			</g>
		</g>
		<g>
			<path class="st0" d="M126.06,140.04c-2.59,23.09-4.35,73.85,15.95,90.22c15.72,13.1,34.96,1.05,38.24-15.98
				c21.61,11.14,44.54-7.86,43.23-30.78c-1.96-30.78-43.68-52.96-70.54-58.2"/>
			<g>
				<path class="st1" d="M124.58,140.04c-2.8,25.92-4.05,56.2,7.74,80.2c4.77,9.7,15.5,18.98,27.04,16.82
					c6.09-1.14,10.85-3.93,15.19-8.3c4.11-4.13,4.35-13.11,10.5-10.95c12.14,4.27,24.93-1.97,32.65-11.26
					c8.64-10.41,8.83-24.72,3.81-36.69c-10.65-25.38-42.83-40.71-68.18-45.98c-1.85-0.39-2.64,2.45-0.78,2.84
					c21.99,4.58,43.96,15.6,58.86,32.66c8.97,10.28,12.94,23.6,8.73,36.8c-5.28,16.57-23.88,23.84-39.15,16.83
					c-0.83-0.38-1.92-0.12-2.17,0.88c-3.74,15.47-18.73,25.64-33.69,16.88c-9.74-5.7-13.61-18.54-15.98-28.77
					c-4.64-19.99-3.81-41.68-1.62-61.96C127.74,138.15,124.78,138.17,124.58,140.04L124.58,140.04z"/>
			</g>
		</g>
	</g>
	<g>
		<g>
			<path class="st1" d="M120.43,97.49c-42.28,1.51-35.34,59.7,9.43,52.23C169.65,143.51,162.64,90.06,120.43,97.49"/>
			<g>
				<path class="st1" d="M120.43,96.02c-16.43,0.99-30.29,11.2-29.64,28.77c0.67,18.22,18.03,27.73,34.49,26.96
					c17.61-0.83,33.49-13.05,32.28-31.73c-1.26-19.38-20.85-26.47-37.52-23.95c-1.87,0.28-1.07,3.12,0.78,2.84
					c16.12-2.44,32.72,4.66,33.89,22.65c1.16,17.8-16.34,26.63-31.61,27.34c-14.77,0.69-27.98-9.1-29.36-24.11
					c-1.47-15.86,12.52-24.97,26.69-25.82C122.32,98.85,122.33,95.9,120.43,96.02L120.43,96.02z"/>
			</g>
		</g>
		<g>
			<g>
				<g>
					<path class="st1" d="M122.31,101.13c-1.54-12.14-5.7-23.69-7.58-35.76c-0.29-1.87-3.13-1.07-2.84,0.78
						c1.84,11.81,5.97,23.11,7.48,34.98C119.59,102.99,122.55,103.02,122.31,101.13L122.31,101.13z"/>
				</g>
			</g>
			<g>
				<g>
					<path class="st1" d="M141.18,143.47c6.92,11.82,15.85,22.82,24.46,33.45c1.2,1.48,3.27-0.62,2.08-2.08
						c-8.44-10.41-17.22-21.26-24-32.85C142.76,140.34,140.21,141.83,141.18,143.47L141.18,143.47z"/>
				</g>
			</g>
			<g>
				<g>
					<path class="st1" d="M111.93,144.96C100.9,155.11,94.56,169,88.12,182.26c-0.83,1.7,1.72,3.2,2.54,1.49
						c6.32-13.04,12.51-26.74,23.35-36.71C115.42,145.75,113.33,143.67,111.93,144.96L111.93,144.96z"/>
				</g>
			</g>
			<g>
				<g>
					<path class="st1" d="M152.03,117.47c11.93-5.99,23.72-12,36.65-15.57c1.83-0.51,1.05-3.35-0.78-2.84
						c-13.18,3.64-25.19,9.76-37.36,15.87C148.85,115.78,150.34,118.32,152.03,117.47L152.03,117.47z"/>
				</g>
			</g>
			<g>
				<g>
					<path class="st1" d="M94.63,120.29c-13.97,0.23-27.33-4.53-41.26-4.91c-1.9-0.05-1.9,2.9,0,2.95
						c13.94,0.38,27.28,5.15,41.26,4.91C96.53,123.21,96.54,120.26,94.63,120.29L94.63,120.29z"/>
				</g>
			</g>
			<g>
				<g>
					<path class="st1" d="M111.3,100.72c-3.38-6.76-8.74-12.24-12.12-19c-0.85-1.7-3.39-0.21-2.54,1.49
						c3.38,6.76,8.74,12.24,12.12,19C109.6,103.91,112.15,102.41,111.3,100.72L111.3,100.72z"/>
				</g>
			</g>
			<g>
				<g>
					<path class="st1" d="M132.79,98.19c0.96-7.33,1.96-14.65,3.55-21.88c0.41-1.85-2.43-2.64-2.84-0.78
						c-1.64,7.48-2.66,15.07-3.65,22.66C129.59,100.07,132.54,100.04,132.79,98.19L132.79,98.19z"/>
				</g>
			</g>
			<g>
				<g>
					<path class="st1" d="M149.94,108.43c4.51-6.56,10.75-12.58,17.48-16.83c1.6-1.01,0.12-3.56-1.49-2.54
						c-7.19,4.54-13.73,10.88-18.54,17.88C146.32,108.51,148.87,109.98,149.94,108.43L149.94,108.43z"/>
				</g>
			</g>
			<g>
				<g>
					<path class="st1" d="M153.91,121.93c9.17,0,18.34,0,27.51,0c1.9,0,1.9-2.95,0-2.95c-9.17,0-18.34,0-27.51,0
						C152.01,118.98,152.01,121.93,153.91,121.93L153.91,121.93z"/>
				</g>
			</g>
			<g>
				<g>
					<path class="st1" d="M147.93,134.5c7.92,4.89,16.21,9.16,23.91,14.41c1.58,1.07,3.05-1.48,1.49-2.54
						c-7.7-5.25-15.99-9.52-23.91-14.41C147.79,130.95,146.31,133.5,147.93,134.5L147.93,134.5z"/>
				</g>
			</g>
			<g>
				<g>
					<path class="st1" d="M131.48,146c1.06,8.88,2.87,17.65,3.93,26.53c0.22,1.86,3.17,1.88,2.95,0
						c-1.06-8.88-2.87-17.65-3.93-26.53C134.2,144.14,131.25,144.11,131.48,146L131.48,146z"/>
				</g>
			</g>
			<g>
				<g>
					<path class="st1" d="M117.77,145.61c-1.37,9.28-4.15,18.23-6.88,27.18c-0.56,1.82,2.29,2.6,2.84,0.78
						c2.73-8.95,5.51-17.91,6.88-27.18C120.89,144.53,118.05,143.73,117.77,145.61L117.77,145.61z"/>
				</g>
			</g>
			<g>
				<g>
					<path class="st1" d="M101.78,141.9c-7.53,3.62-13.63,9.3-20.63,13.75c-1.6,1.02-0.12,3.57,1.49,2.54
						c7-4.45,13.1-10.14,20.63-13.75C104.98,143.62,103.49,141.08,101.78,141.9L101.78,141.9z"/>
				</g>
			</g>
			<g>
				<g>
					<path class="st1" d="M98.65,112.31c-7.93-4.78-16.63-7.68-25.24-10.96c-1.78-0.68-2.54,2.17-0.78,2.84
						c8.37,3.18,16.83,6.01,24.54,10.66C98.8,115.83,100.28,113.28,98.65,112.31L98.65,112.31z"/>
				</g>
			</g>
			<g>
				<g>
					<path class="st1" d="M93.91,126.89c-9.42,1.68-18.61,4.01-27.51,7.53c-1.75,0.69-0.98,3.54,0.78,2.84
						c8.9-3.53,18.09-5.86,27.51-7.53C96.57,129.4,95.77,126.56,93.91,126.89L93.91,126.89z"/>
				</g>
			</g>
		</g>
		<g>
			<g>
				<path class="st2" d="M146.22,122.15c-1.79-6.47-13.89-4.02-11.01,3.72C137.34,131.58,148.61,129.06,146.22,122.15"/>
			</g>
			<g>
				<path class="st2" d="M138.61,108.44c-1.95-7.07-15.16-4.39-12.01,4.05C128.92,118.71,141.21,115.97,138.61,108.44"/>
			</g>
			<g>
				<path class="st2" d="M129.93,121.14c-2.11-7.65-16.42-4.76-13.01,4.39C119.43,132.28,132.75,129.3,129.93,121.14"/>
			</g>
			<g>
				<path class="st2" d="M120.45,109.99c-1.78-6.47-13.89-4.03-11.01,3.71C111.57,119.41,122.84,116.89,120.45,109.99"/>
			</g>
			<g>
				<path class="st2" d="M137.72,134.23c-1.94-7.07-15.15-4.39-12.01,4.05C128.03,144.51,140.32,141.76,137.72,134.23"/>
			</g>
			<g>
				<path class="st2" d="M112.98,123.3c-1.84-6.63-14.13-4.17-11.16,3.76C104,132.91,115.44,130.38,112.98,123.3"/>
			</g>
			<g>
				<path class="st2" d="M120.45,135.05c-1.79-6.48-13.89-4.03-11.01,3.71C111.57,144.47,122.84,141.95,120.45,135.05"/>
			</g>
		</g>
	</g>
</g>
</svg>
